<svg xmlns="http://www.w3.org/2000/svg" viewBox="95.11500091552733 128.07999801635742 384.77000427246094 324.23000144958496"> <svg xmlns="http://www.w3.org/2000/svg" xmlns:xlink="http://www.w3.org/1999/xlink" version="1.1" id="Layer_1" x="227.744" y="198.07999801635742" viewBox="88.01000213623047 62.95199966430664 323.97998046875 374.09600830078125" enable-background="new 0 0 500 500" xml:space="preserve" height="138.00000000000003" width="119.51275489315061" preserveAspectRatio="xMinYMin" style="overflow: visible;"><polygon id="XMLID_00000085957900020265628440000016345624449483203203_" fill="#70EFFC" points="349.177,246.747 349.177,307.263 250,208.88   " style="fill: #70EFFC;"></polygon><polygon id="XMLID_00000085957900020265628440000016345624449483203203_" fill="#4EE1F9" points="411.99,283.007 411.99,343.522 349.177,307.263 349.177,246.747   " style="fill: #4EE1F9;"></polygon><polygon id="XMLID_00000085957900020265628440000016345624449483203203_" fill="#05A7D3" points="411.99,343.522 358.472,374.421 358.464,374.421 250,437.048 250,364.522 295.659,338.161     349.177,307.263   " style="fill: #05A7D3;"></polygon><polygon id="XMLID_00000085957900020265628440000016345624449483203203_" fill="#057EC1" points="250,364.522 250,437.048 150.823,307.263   " style="fill: #057EC1;"></polygon><polygon id="XMLID_00000085957900020265628440000016345624449483203203_" fill="#0462A3" points="150.823,307.263 250,437.048 88.01,343.522   " style="fill: #0462A3;"></polygon><polygon id="XMLID_00000085957900020265628440000016345624449483203203_" fill="#2E97ED" points="411.99,156.478 349.177,192.737 250,62.952   " style="fill: #2E97ED;"></polygon><polygon id="XMLID_00000085957900020265628440000016345624449483203203_" fill="#297ED3" points="250,62.952 349.177,192.737 250,135.478   " style="fill: #297ED3;"></polygon><polygon id="XMLID_00000085957900020265628440000016345624449483203203_" fill="#0E52A5" points="250,62.952 250,135.478 203.229,162.483 150.823,192.737 88.01,156.478 140.416,126.224   " style="fill: #0E52A5;"></polygon><polygon id="XMLID_00000085957900020265628440000016345624449483203203_" fill="#033277" points="150.823,192.737 150.823,254.542 88.01,218.275 88.01,156.478   " style="fill: #033277;"></polygon><polygon id="XMLID_00000085957900020265628440000016345624449483203203_" fill="#021A56" points="150.823,192.737 243.914,297.454 150.823,254.542   " style="fill: #021A56;"></polygon></svg> <svg y="351.5399990081787" viewBox="1.7000000476837158 12.789999961853027 244.77000427246094 30.770000457763672" x="165.11500091552733" height="30.770000457763672" width="244.77000427246094" style="overflow: visible;"><g fill="#021A56" fill-opacity="1" style=""><path d="M12.88 43.56Q8.60 43.56 2.30 42.73L2.30 42.73L2.30 37.26Q10.12 38.46 12.97 38.46L12.97 38.46Q18.95 38.46 18.95 35.37L18.95 35.37L18.95 33.44Q18.95 31.97 18.10 31.19Q17.25 30.41 15.04 30.41L15.04 30.41L11.55 30.41Q1.70 30.41 1.70 22.59L1.70 22.59L1.70 20.38Q1.70 16.47 4.97 14.63Q8.23 12.79 15.32 12.79L15.32 12.79Q19.00 12.79 24.66 13.39L24.66 13.39L24.66 18.72Q17.71 17.89 15.09 17.89L15.09 17.89Q11.45 17.89 10.21 18.49L10.21 18.49Q8.88 19.14 8.88 20.52L8.88 20.52L8.88 22.63Q8.88 24.98 12.83 24.98L12.83 24.98L16.42 24.98Q21.53 24.98 23.83 26.86Q26.13 28.75 26.13 32.61L26.13 32.61L26.13 34.59Q26.13 39.93 22.31 41.81L22.31 41.81Q20.47 42.78 18.24 43.17Q16.01 43.56 12.88 43.56L12.88 43.56ZM31.10 43.10L31.10 13.25L38.27 13.25L38.27 43.10L31.10 43.10ZM44.71 43.10L44.71 13.25L54.92 13.25L62.28 34.59L69.55 13.25L79.17 13.25L79.17 43.10L72.68 43.10L72.68 21.02L72.54 21.02L65.00 43.10L59.25 43.10L51.47 21.02L51.29 21.02L51.29 43.10L44.71 43.10ZM85.61 43.10L85.61 13.25L97.57 13.25Q101.94 13.25 104.49 13.85Q107.04 14.44 108.22 15.94Q109.39 17.43 109.39 20.10L109.39 20.10L109.39 25.76Q109.39 28.70 108.12 30.36Q106.86 32.02 104.12 32.71Q101.38 33.40 96.74 33.40L96.74 33.40L92.78 33.40L92.78 43.10L85.61 43.10ZM92.78 28.47L97.34 28.47Q100.14 28.47 101.29 27.81Q102.44 27.14 102.44 25.53L102.44 25.53L102.44 20.75Q102.44 19.27 101.34 18.81L101.34 18.81Q100.28 18.35 97.24 18.35L97.24 18.35L92.78 18.35L92.78 28.47ZM114.45 43.10L114.45 13.25L121.62 13.25L121.62 38.00L136.30 38.00L136.30 43.10L114.45 43.10ZM141.13 43.10L141.13 13.25L148.30 13.25L148.30 43.10L141.13 43.10ZM164.40 43.56Q160.13 43.56 153.82 42.73L153.82 42.73L153.82 37.26Q161.64 38.46 164.50 38.46L164.50 38.46Q170.48 38.46 170.48 35.37L170.48 35.37L170.48 33.44Q170.48 31.97 169.63 31.19Q168.77 30.41 166.57 30.41L166.57 30.41L163.07 30.41Q153.23 30.41 153.23 22.59L153.23 22.59L153.23 20.38Q153.23 16.47 156.49 14.63Q159.76 12.79 166.84 12.79L166.84 12.79Q170.52 12.79 176.18 13.39L176.18 13.39L176.18 18.72Q169.23 17.89 166.61 17.89L166.61 17.89Q162.98 17.89 161.74 18.49L161.74 18.49Q160.40 19.14 160.40 20.52L160.40 20.52L160.40 22.63Q160.40 24.98 164.36 24.98L164.36 24.98L167.95 24.98Q173.05 24.98 175.35 26.86Q177.65 28.75 177.65 32.61L177.65 32.61L177.65 34.59Q177.65 39.93 173.83 41.81L173.83 41.81Q171.99 42.78 169.76 43.17Q167.53 43.56 164.40 43.56L164.40 43.56ZM189.52 43.10L189.52 18.35L180.32 18.35L180.32 13.25L205.85 13.25L205.85 18.35L196.70 18.35L196.70 43.10L189.52 43.10ZM209.99 43.10L209.99 13.25L217.17 13.25L217.17 43.10L209.99 43.10ZM236.81 43.56Q234.78 43.56 233.20 43.38Q231.61 43.19 229.72 42.69L229.72 42.69Q227.61 42.14 226.23 41.24Q224.85 40.34 223.93 38.73L223.93 38.73Q222.96 37.12 222.96 34.91L222.96 34.91L222.96 21.80Q222.96 12.79 236.81 12.79L236.81 12.79Q240.35 12.79 246.28 13.80L246.28 13.80L246.28 19.18Q240.95 17.89 236.90 17.89L236.90 17.89Q235.20 17.89 234.26 17.99Q233.31 18.08 232.30 18.45L232.30 18.45Q230.14 19.18 230.14 21.71L230.14 21.71L230.14 34.41Q230.14 38.46 237.54 38.46L237.54 38.46Q240.72 38.46 246.47 37.12L246.47 37.12L246.47 42.55Q241.55 43.56 236.81 43.56L236.81 43.56Z" transform="translate(0, 0)"></path></g></svg></svg>